<svg width="1440" height="1040" viewBox="0 0 1440 1040" fill="none" xmlns="http://www.w3.org/2000/svg">
  <defs>
    <radialGradient id="bgGlow" cx="0" cy="0" r="1" gradientUnits="userSpaceOnUse" gradientTransform="translate(980 254) rotate(124) scale(700 620)">
      <stop stop-color="#49B8FF" stop-opacity=".5"/>
      <stop offset=".52" stop-color="#1F8CFF" stop-opacity=".16"/>
      <stop offset="1" stop-color="#06162C" stop-opacity="0"/>
    </radialGradient>
    <linearGradient id="shell" x1="268" y1="214" x2="1168" y2="780" gradientUnits="userSpaceOnUse">
      <stop stop-color="#163C6F"/>
      <stop offset=".48" stop-color="#0A2348"/>
      <stop offset="1" stop-color="#061225"/>
    </linearGradient>
    <linearGradient id="screen" x1="356" y1="276" x2="1032" y2="710" gradientUnits="userSpaceOnUse">
      <stop stop-color="#0E315D"/>
      <stop offset="1" stop-color="#06162C"/>
    </linearGradient>
    <linearGradient id="accent" x1="432" y1="356" x2="902" y2="482" gradientUnits="userSpaceOnUse">
      <stop stop-color="#75C4FF"/>
      <stop offset="1" stop-color="#1F8CFF"/>
    </linearGradient>
    <filter id="softShadow" x="108" y="112" width="1230" height="820" filterUnits="userSpaceOnUse" color-interpolation-filters="sRGB">
      <feDropShadow dx="0" dy="36" stdDeviation="42" flood-color="#000814" flood-opacity=".48"/>
      <feDropShadow dx="0" dy="0" stdDeviation="34" flood-color="#1F8CFF" flood-opacity=".24"/>
    </filter>
    <filter id="lineGlow" x="-20%" y="-20%" width="140%" height="140%" color-interpolation-filters="sRGB">
      <feGaussianBlur stdDeviation="4" result="blur"/>
      <feMerge>
        <feMergeNode in="blur"/>
        <feMergeNode in="SourceGraphic"/>
      </feMerge>
    </filter>
  </defs>
  <rect width="1440" height="1040" rx="48" fill="#041126"/>
  <rect width="1440" height="1040" rx="48" fill="url(#bgGlow)"/>
  <g opacity=".22">
    <path d="M146 220H1290M146 340H1290M146 460H1290M146 580H1290M146 700H1290M260 112V884M440 112V884M620 112V884M800 112V884M980 112V884M1160 112V884" stroke="#75C4FF" stroke-width="1.4"/>
  </g>
  <g filter="url(#softShadow)">
    <path d="M272 246C272 214 298 188 330 188H1110C1142 188 1168 214 1168 246V752H272V246Z" fill="url(#shell)" stroke="#75C4FF" stroke-opacity=".34" stroke-width="4"/>
    <path d="M330 286C330 266 346 250 366 250H1074C1094 250 1110 266 1110 286V688H330V286Z" fill="url(#screen)" stroke="#75C4FF" stroke-opacity=".2" stroke-width="2"/>
    <path d="M186 756H1254L1194 842H246L186 756Z" fill="#0B2342" stroke="#75C4FF" stroke-opacity=".28" stroke-width="3"/>
    <path d="M430 800H1010" stroke="#75C4FF" stroke-opacity=".34" stroke-width="18" stroke-linecap="round"/>
    <path d="M580 832H860" stroke="#1F8CFF" stroke-opacity=".72" stroke-width="20" stroke-linecap="round"/>
  </g>
  <g filter="url(#lineGlow)">
    <path d="M420 392H704" stroke="url(#accent)" stroke-width="30" stroke-linecap="round"/>
    <path d="M420 456H920" stroke="#75C4FF" stroke-opacity=".46" stroke-width="16" stroke-linecap="round"/>
    <path d="M420 506H796" stroke="#75C4FF" stroke-opacity=".28" stroke-width="16" stroke-linecap="round"/>
    <path d="M786 392H1006" stroke="#22C55E" stroke-opacity=".7" stroke-width="12" stroke-linecap="round"/>
  </g>
  <g>
    <rect x="422" y="580" width="168" height="92" rx="18" fill="#102F57" stroke="#75C4FF" stroke-opacity=".32" stroke-width="2"/>
    <rect x="632" y="580" width="168" height="92" rx="18" fill="#102F57" stroke="#75C4FF" stroke-opacity=".32" stroke-width="2"/>
    <rect x="842" y="580" width="168" height="92" rx="18" fill="#102F57" stroke="#75C4FF" stroke-opacity=".32" stroke-width="2"/>
    <path d="M456 624H548M456 650H518M666 624H758M666 650H724M876 624H968M876 650H936" stroke="#75C4FF" stroke-opacity=".56" stroke-width="9" stroke-linecap="round"/>
  </g>
  <g>
    <rect x="872" y="316" width="154" height="154" rx="30" fill="#0B2342" stroke="#49B8FF" stroke-opacity=".56" stroke-width="3"/>
    <path d="M912 394H986M949 357V431" stroke="#49B8FF" stroke-width="18" stroke-linecap="round"/>
    <circle cx="1048" cy="286" r="18" fill="#22C55E"/>
    <circle cx="278" cy="308" r="18" fill="#49B8FF"/>
    <circle cx="1138" cy="718" r="24" fill="#1F8CFF"/>
  </g>
  <g opacity=".78">
    <path d="M246 510C332 510 332 390 418 390" stroke="#49B8FF" stroke-opacity=".55" stroke-width="4" stroke-linecap="round"/>
    <path d="M1024 532C1124 532 1124 430 1220 430" stroke="#75C4FF" stroke-opacity=".44" stroke-width="4" stroke-linecap="round"/>
    <path d="M290 624C364 624 364 710 438 710" stroke="#22C55E" stroke-opacity=".45" stroke-width="4" stroke-linecap="round"/>
  </g>
</svg>
