<svg width="720" height="520" viewBox="0 0 720 520" fill="none" xmlns="http://www.w3.org/2000/svg" role="img" aria-labelledby="title desc">
  <title id="title">Service workbench illustration</title>
  <desc id="desc">A laptop, mobile phone, diagnostic card, and repair tools arranged on a clean service desk.</desc>
  <defs>
    <linearGradient id="desk" x1="88" y1="419" x2="633" y2="419" gradientUnits="userSpaceOnUse">
      <stop stop-color="#0F766E"/>
      <stop offset="0.48" stop-color="#22C55E"/>
      <stop offset="1" stop-color="#38BDF8"/>
    </linearGradient>
    <linearGradient id="screen" x1="174" y1="117" x2="516" y2="320" gradientUnits="userSpaceOnUse">
      <stop stop-color="#ECFEFF"/>
      <stop offset="0.55" stop-color="#E0F2FE"/>
      <stop offset="1" stop-color="#F8FAFC"/>
    </linearGradient>
    <linearGradient id="accent" x1="253" y1="171" x2="431" y2="271" gradientUnits="userSpaceOnUse">
      <stop stop-color="#14B8A6"/>
      <stop offset="1" stop-color="#F59E0B"/>
    </linearGradient>
    <filter id="softShadow" x="36" y="67" width="650" height="400" filterUnits="userSpaceOnUse" color-interpolation-filters="sRGB">
      <feFlood flood-opacity="0" result="BackgroundImageFix"/>
      <feColorMatrix in="SourceAlpha" type="matrix" values="0 0 0 0 0 0 0 0 0 0 0 0 0 0 0 0 0 0 127 0" result="hardAlpha"/>
      <feOffset dy="24"/>
      <feGaussianBlur stdDeviation="28"/>
      <feComposite in2="hardAlpha" operator="out"/>
      <feColorMatrix type="matrix" values="0 0 0 0 0.0156863 0 0 0 0 0.0901961 0 0 0 0 0.164706 0 0 0 0.24 0"/>
      <feBlend mode="normal" in2="BackgroundImageFix" result="effect1_dropShadow_1_2"/>
      <feBlend mode="normal" in="SourceGraphic" in2="effect1_dropShadow_1_2" result="shape"/>
    </filter>
  </defs>
  <rect x="80" y="382" width="560" height="48" rx="24" fill="url(#desk)" opacity="0.22"/>
  <g filter="url(#softShadow)">
    <path d="M168 110H512C531.882 110 548 126.118 548 146V336H132V146C132 126.118 148.118 110 168 110Z" fill="#0F172A"/>
    <path d="M171 134H509C517.837 134 525 141.163 525 150V316H155V150C155 141.163 162.163 134 171 134Z" fill="url(#screen)"/>
    <path d="M105 336H575L607 377C613.021 384.716 607.521 396 597.731 396H82.269C72.479 396 66.9789 384.716 73 377L105 336Z" fill="#CBD5E1"/>
    <path d="M255 354H425L441 374H239L255 354Z" fill="#94A3B8"/>
    <path d="M276 182H404C413.941 182 422 190.059 422 200V276C422 285.941 413.941 294 404 294H276C266.059 294 258 285.941 258 276V200C258 190.059 266.059 182 276 182Z" fill="white"/>
    <path d="M288 210H392" stroke="#CBD5E1" stroke-width="10" stroke-linecap="round"/>
    <path d="M288 238H352" stroke="#CBD5E1" stroke-width="10" stroke-linecap="round"/>
    <path d="M288 266H374" stroke="#CBD5E1" stroke-width="10" stroke-linecap="round"/>
    <circle cx="420" cy="181" r="36" fill="url(#accent)"/>
    <path d="M405 181L416 192L437 168" stroke="#07111F" stroke-width="9" stroke-linecap="round" stroke-linejoin="round"/>
  </g>
  <g filter="url(#softShadow)">
    <rect x="496" y="190" width="86" height="156" rx="22" fill="#111827"/>
    <rect x="508" y="212" width="62" height="106" rx="8" fill="#E0F2FE"/>
    <path d="M526 236H553" stroke="#14B8A6" stroke-width="8" stroke-linecap="round"/>
    <path d="M522 260H557" stroke="#CBD5E1" stroke-width="7" stroke-linecap="round"/>
    <path d="M522 282H546" stroke="#CBD5E1" stroke-width="7" stroke-linecap="round"/>
    <circle cx="539" cy="330" r="5" fill="#CBD5E1"/>
  </g>
  <g filter="url(#softShadow)">
    <rect x="105" y="177" width="112" height="86" rx="18" fill="#F8FAFC"/>
    <path d="M130 211H191" stroke="#14B8A6" stroke-width="9" stroke-linecap="round"/>
    <path d="M130 237H170" stroke="#CBD5E1" stroke-width="8" stroke-linecap="round"/>
    <circle cx="191" cy="236" r="12" fill="#F59E0B"/>
  </g>
  <path d="M190 399L228 361" stroke="#0F172A" stroke-width="16" stroke-linecap="round"/>
  <path d="M215 374L237 396" stroke="#38BDF8" stroke-width="16" stroke-linecap="round"/>
  <path d="M480 386L520 346" stroke="#0F172A" stroke-width="14" stroke-linecap="round"/>
  <path d="M510 356L536 382" stroke="#F59E0B" stroke-width="14" stroke-linecap="round"/>
  <circle cx="110" cy="124" r="10" fill="#38BDF8" opacity="0.72"/>
  <circle cx="603" cy="152" r="12" fill="#F59E0B" opacity="0.7"/>
  <circle cx="611" cy="329" r="8" fill="#14B8A6" opacity="0.8"/>
</svg>
